<?xml version="1.0" encoding="UTF-8"?>
<!--Generator: Apple Native CoreSVG 326-->
<!DOCTYPE svg
PUBLIC "-//W3C//DTD SVG 1.1//EN"
       "http://www.w3.org/Graphics/SVG/1.1/DTD/svg11.dtd">
<svg version="1.1" xmlns="http://www.w3.org/2000/svg" xmlns:xlink="http://www.w3.org/1999/xlink" viewBox="0 0 592.25 793.75">
 <g>
  <rect height="793.75" opacity="0" width="592.25" x="0" y="0"/>
  <path d="M278.25 155.5C282.25 155.5 284.25 153 285 149.25C293.75 98 293 93.75 350 84.25C353.75 83.75 356 81.5 356 77.75C356 74 353.75 71.5 350 71C293 61.5 293.75 57.25 285 6C284.25 2.25 282.25 0 278.25 0C274.25 0 272.25 2.25 271.5 6C262.75 57.25 263.5 61.5 206.5 71C202.75 71.5 200.5 74 200.5 77.75C200.5 81.5 202.75 83.75 206.5 84.25C263.5 93.75 262.75 98 271.5 149.25C272.25 153 274.25 155.5 278.25 155.5Z" fill="black" fill-opacity="0.85"/>
  <path d="M121 375.75C126 375.75 129.75 372.25 130.5 367.25C142.5 280.75 144.5 281.5 233.5 264.5C238.25 263.5 242 260.25 242 255C242 249.75 238.25 246.25 233.5 245.5C144.5 232 142.25 230.25 130.5 143C129.75 137.75 126 134.25 121 134.25C116 134.25 112.25 137.75 111.5 143.25C100.25 229.5 97 228.5 8.5 245.5C3.75 246.5 0 249.75 0 255C0 260.5 3.75 263.5 9.5 264.5C97.5 279.25 100.25 280.5 111.5 366.75C112.25 372.25 116 375.75 121 375.75Z" fill="black" fill-opacity="0.85"/>
  <path d="M339.75 734.25C347.5 734.25 353.25 729 354.25 721C376.25 539.25 399.75 515.25 578.5 496.5C586.75 495.75 592.25 490 592.25 482.25C592.25 474.5 586.75 468.5 578.5 467.75C399.75 449 376.25 425 354.25 243.25C353.25 235.5 347.5 230 339.75 230C332 230 326.5 235.5 325.25 243.25C303.25 425 279.75 449 101 467.75C92.75 468.5 87.25 474.5 87.25 482.25C87.25 490 92.75 495.75 101 496.5C279.25 519.5 301.75 539.5 325.25 721C326.5 729 332 734.25 339.75 734.25Z" fill="black" fill-opacity="0.85"/>
 </g>
</svg>
