<svg viewBox="0 0 512 512" xmlns="http://www.w3.org/2000/svg"><g fill-rule="evenodd" fill="currentColor" transform="translate(104 132)"><path d="m6.0039617 18.921326c21.8698896-12.61421735 43.909336-18.921326 66.1183394-18.921326 24.2428004 0 48.9111239 10.3636364 74.0049719 31.0909091v217.9090909c-25.294104-11.393939-49.9624274-17.090909-74.0049719-17.090909-19.2946408 0-38.588137 1.834537-57.8804884 5.503611-6.51073108 1.238158-12.79242378-3.036141-14.03054652-9.546879-.14068333-.739791-.2114173-1.491182-.21126618-2.244231v-196.3097037c.00115084-4.2875264 2.28975996-8.2486965 6.0039617-10.3905623z"/><path d="m164.32422 18.9490698c22.413119-12.63271319 44.732318-18.9490698 66.957598-18.9490698 24.242801 0 48.597346 10.3636364 73.063637 31.0909091v217.9090909c-25.294104-11.393939-49.962428-17.090909-74.004972-17.090909-19.294641 0-38.588137 1.834537-57.880488 5.503611-6.510732 1.238158-12.792424-3.036141-14.030547-9.546879-.140683-.739791-.211417-1.491182-.211266-2.244231v-196.2166029c-.000746-4.3317564 2.333142-8.327687 6.106038-10.4559193z" transform="matrix(-1 0 0 1 462.563636 0)"/></g></svg>
