<svg xmlns="http://www.w3.org/2000/svg" viewBox="0 0 512 512" ><g fill="none" fill-rule="evenodd" stroke="#000" stroke-linejoin="round" stroke-width="30" transform="scale(0.6) translate(150 150)"><path d="M29.47 77.915C65.39 56.638 101.587 46 138.063 46c39.817 0 80.332 17.48 121.546 52.442V466c-41.543-19.219-82.058-28.828-121.546-28.828-31.69 0-63.377 3.094-95.063 9.283-10.693 2.089-21.01-5.121-23.044-16.103a20.793 20.793 0 0 1-.347-3.785V95.442c0-7.232 3.761-13.914 9.861-17.527ZM483.027 77.962C447.289 56.654 411.7 46 376.263 46c-38.655 0-77.489 17.48-116.5 52.442V466c40.331-19.219 79.665-28.828 118-28.828 30.766 0 61.53 3.094 92.291 9.283 10.381 2.089 20.398-5.121 22.372-16.103a21.4 21.4 0 0 0 .337-3.785V95.599c0-7.307-3.72-14.047-9.736-17.637Z"/></g></svg>
