<?xml version="1.0" encoding="UTF-8"?>
<!--Generator: Apple Native CoreSVG 326-->
<!DOCTYPE svg
PUBLIC "-//W3C//DTD SVG 1.1//EN"
       "http://www.w3.org/Graphics/SVG/1.1/DTD/svg11.dtd">
<svg version="1.1" xmlns="http://www.w3.org/2000/svg" xmlns:xlink="http://www.w3.org/1999/xlink" viewBox="0 0 685.25 551.75">
 <g>
  <rect height="551.75" opacity="0" width="685.25" x="0" y="0"/>
  <path d="M97.25 492.5L587.75 492.5C652.5 492.5 685.25 459.75 685.25 396.25L685.25 156.25C685.25 92.75 652.5 60 587.75 60L97.25 60C32.75 60 0 92.25 0 156.25L0 396.25C0 460.25 32.75 492.5 97.25 492.5ZM98.25 448.25C63.25 448.25 44.25 429.75 44.25 393.75L44.25 158.75C44.25 122.75 63.25 104.25 98.25 104.25L587 104.25C621.25 104.25 641 122.75 641 158.75L641 393.75C641 429.75 621.25 448.25 587 448.25ZM112.5 78.5L156.75 78.5L156.75 23C156.75 9.75 147.75 0.75 134.75 0.75C121.5 0.75 112.5 9.75 112.5 23ZM216.5 78.5L260.75 78.5L260.75 23C260.75 9.75 251.75 0.75 238.75 0.75C225.5 0.75 216.5 9.75 216.5 23ZM320.5 78.5L364.75 78.5L364.75 23C364.75 9.75 355.75 0.75 342.5 0.75C329.5 0.75 320.5 9.75 320.5 23ZM424.5 78.5L468.75 78.5L468.75 23C468.75 9.75 459.75 0.75 446.5 0.75C433.5 0.75 424.5 9.75 424.5 23ZM528.25 78.5L572.75 78.5L572.75 23C572.75 9.75 563.5 0.75 550.5 0.75C537.25 0.75 528.25 9.75 528.25 23ZM112.5 475.5L112.5 529.5C112.5 542.5 121.5 551.75 134.75 551.75C147.75 551.75 156.75 542.5 156.75 529.5L156.75 475.5ZM216.5 475.5L216.5 529.5C216.5 542.5 225.5 551.75 238.75 551.75C251.75 551.75 260.75 542.5 260.75 529.5L260.75 475.5ZM320.5 475.5L320.5 529.5C320.5 542.5 329.5 551.75 342.5 551.75C355.75 551.75 364.75 542.5 364.75 529.5L364.75 475.5ZM424.5 475.5L424.5 529.5C424.5 542.5 433.5 551.75 446.5 551.75C459.75 551.75 468.75 542.5 468.75 529.5L468.75 475.5ZM528.25 475.5L528.25 529.5C528.25 542.5 537.25 551.75 550.5 551.75C563.5 551.75 572.75 542.5 572.75 529.5L572.75 475.5Z" fill="black" fill-opacity="0.85"/>
 </g>
</svg>
