<?xml version="1.0" encoding="UTF-8"?>
<!--Generator: Apple Native CoreSVG 326-->
<!DOCTYPE svg
PUBLIC "-//W3C//DTD SVG 1.1//EN"
       "http://www.w3.org/Graphics/SVG/1.1/DTD/svg11.dtd">
<svg version="1.1" xmlns="http://www.w3.org/2000/svg" xmlns:xlink="http://www.w3.org/1999/xlink" viewBox="0 0 784.25 515.25">
 <g>
  <rect height="515.25" opacity="0" width="784.25" x="0" y="0"/>
  <path d="M171.75 506.75L593.5 506.75C700.75 506.75 784.25 425.5 784.25 322C784.25 217.5 698.75 138.5 583.25 138.5C540.5 53 463.25 0 365.75 0C241.5 0 137.25 97.75 126 225.75C61.75 243.75 16.5 296.75 16.5 365.75C16.5 443.5 73.25 506.75 171.75 506.75ZM171.25 462.5C101.75 462.5 60.75 423.25 60.75 367C60.75 318 92.75 282 147 267.75C163.25 263.5 169 256.25 170.25 240C177.75 129 263.25 44.25 365.75 44.25C447.75 44.25 509.5 90.25 545.75 165C552.75 179.25 561 184.25 579 184.25C679 184.25 739.75 247 739.75 323.25C739.75 400.75 677 462.5 596.25 462.5Z" fill="black" fill-opacity="0.85"/>
 </g>
</svg>
