<?xml version="1.0" encoding="UTF-8"?>
<!--Generator: Apple Native CoreSVG 326-->
<!DOCTYPE svg
PUBLIC "-//W3C//DTD SVG 1.1//EN"
       "http://www.w3.org/Graphics/SVG/1.1/DTD/svg11.dtd">
<svg version="1.1" xmlns="http://www.w3.org/2000/svg" xmlns:xlink="http://www.w3.org/1999/xlink" viewBox="0 0 924.25 577.75">
 <g>
  <rect height="577.75" opacity="0" width="924.25" x="0" y="0"/>
  <path d="M0 456.75C0 530 47.75 577.75 119.25 577.75C155.5 577.75 191.5 562 218 529.25L277.5 457.25C286 447 295.5 442.25 305.75 442.25L618.5 442.25C628.75 442.25 638.25 447 646.75 457.25L706 529.25C732.75 562 768.75 577.75 805 577.75C876.5 577.75 924.25 530 924.25 456.75C924.25 425.25 916.75 388.75 904.25 346.75C884.5 280.75 850 191 816.75 120.75C789.5 63.75 775.75 38.75 709.5 23.75C647.75 9.5 563.25 0.5 462 0.5C361 0.5 276.5 9.5 214.75 23.75C148.5 38.75 134.75 63.75 107.5 120.75C74.25 191 39.75 280.75 20 346.75C7.5 388.75 0 425.25 0 456.75ZM42.25 458.75C42.25 438.25 46.75 413.25 58.25 374C78.75 303 115.75 208 148.75 135.5C164.75 100.75 174.5 78.25 218.5 68C277.75 54 361.75 44.75 462 44.75C562.5 44.75 646.5 54 705.5 68C749.75 78.25 759.25 100.75 775.5 135.5C809 208 844.75 303.25 866 374C877.75 413.25 882 438.25 882 458.75C882 505.25 849.75 535 805.5 535C780.25 535 755.5 521.75 735.75 498L675.25 424.75C660.25 406.5 647.25 397.75 620 397.75L304.25 397.75C277 397.75 264 406.5 249 424.75L188.5 498C168.75 521.75 144 535 118.75 535C74.5 535 42.25 505.25 42.25 458.75Z" fill="black" fill-opacity="0.85"/>
  <path d="M202.75 224C202.75 238.25 211.25 247 225.5 247L289.25 247L289.25 310.75C289.25 324.75 297.5 333.5 311.25 333.5C324.75 333.5 333 324.75 333 310.75L333 247L394.25 247C409.5 247 418.5 238.25 418.5 224C418.5 210.5 409.5 201.75 394.25 201.75L333 201.75L333 138.25C333 124.25 324.75 115.5 311.25 115.5C297.5 115.5 289.25 124.25 289.25 138.25L289.25 201.75L225.5 201.75C211.25 201.75 202.75 210.5 202.75 224ZM662 219C687 219 707.25 199 707.25 174C707.25 149 687 129 662 129C637 129 617 149 617 174C617 199 637 219 662 219ZM565 315.25C590 315.25 610.25 295.25 610.25 270.25C610.25 245.25 590 225.25 565 225.25C540 225.25 520 245.25 520 270.25C520 295.25 540 315.25 565 315.25Z" fill="black" fill-opacity="0.85"/>
 </g>
</svg>
