<svg viewBox="0 0 512 512" xmlns="http://www.w3.org/2000/svg"><g fill="none" fill-rule="evenodd"><circle cx="288.5" cy="107.5" fill="currentColor" r="42.5"/><path d="m282.566072 160.838651-34.029997-17.829547c-9.784116-5.126252-21.871357-1.350308-26.997609 8.433808-.741014 1.414321-1.309997 2.912289-1.694797 4.461912l-29.653462 119.417031c-3.993009 16.080189 5.805587 32.352731 21.885776 36.34574 2.365134.587306 4.793019.884242 7.229982.884242h38.486325c4.980844 0 9.34013-3.346846 10.626701-8.158659l29.206143-109.231853c3.624229-13.554724-2.630713-27.811013-15.059062-34.322674z" fill="currentColor"/><g stroke="currentColor" stroke-linecap="round" stroke-linejoin="round"><path d="m245.945312 286.0625 44.770508 62.777344-12.381591 87.535156" stroke-width="30"/><path d="m294.133618 166.818877 36.872425 22.6341-20.512985 73.23204" stroke-width="30" transform="matrix(-.70710678 .70710678 -.70710678 -.70710678 685.442634 145.584259)"/><path d="m220.925781 283.017578-20.042968 69.66211-48.88086 83.820312" stroke-width="30"/><path d="m359.5 214.5v228.3125" stroke-width="16"/></g><path d="m142.649962 143.113569c7.557447-17.470463 19.140889-27.915674 34.750325-31.335635 10.250368-2.245355 20.379972 4.244272 22.625041 14.494703.292325 1.334682.439829 2.697002.439954 4.063322v113.193322c0 10.493411-8.50659 19-19 19h-29.083685c-9.920514-.000089-18.171163-7.632537-18.942227-17.52304-3.552709-45.521015-.482511-79.485239 9.210592-101.892672z" fill="currentColor" transform="matrix(.97029573 .2419219 -.2419219 .97029573 50.063486 -34.675813)"/></g></svg>
