<?xml version="1.0" encoding="UTF-8"?>
<!--Generator: Apple Native CoreSVG 326-->
<!DOCTYPE svg
PUBLIC "-//W3C//DTD SVG 1.1//EN"
       "http://www.w3.org/Graphics/SVG/1.1/DTD/svg11.dtd">
<svg version="1.1" xmlns="http://www.w3.org/2000/svg" xmlns:xlink="http://www.w3.org/1999/xlink" viewBox="0 0 647 699.688">
 <g>
  <rect height="699.688" opacity="0" width="647" x="0" y="0"/>
  <path d="M41.75 548.469L298 692.469C315.5 701.969 331.5 702.219 349 692.469L605.25 548.469C633.25 532.719 647 516.469 647 475.219L647 212.719C647 183.719 635.75 165.469 611.75 151.969L375.5 18.4691C340.75-1.28095 306.25-1.28095 271.25 18.4691L35.25 151.969C11.25 165.469 0 183.719 0 212.719L0 475.219C0 516.469 13.75 532.719 41.75 548.469ZM67.5 512.719C48 501.969 42.5 491.469 42.5 473.469L42.5 222.219L301.75 368.469L301.75 644.219ZM579.5 512.719L345.25 644.219L345.25 368.469L604.5 222.219L604.5 473.469C604.5 491.469 599 501.969 579.5 512.719ZM323.5 329.719L65 184.969L173.5 123.469L432.5 268.969ZM476.75 243.969L217 98.7191L291 57.2191C313 44.7191 334 44.4691 356 57.2191L582 184.969Z" fill="black" fill-opacity="0.85"/>
 </g>
</svg>
