<?xml version="1.0" encoding="UTF-8"?>
<!--Generator: Apple Native CoreSVG 326-->
<!DOCTYPE svg
PUBLIC "-//W3C//DTD SVG 1.1//EN"
       "http://www.w3.org/Graphics/SVG/1.1/DTD/svg11.dtd">
<svg version="1.1" xmlns="http://www.w3.org/2000/svg" xmlns:xlink="http://www.w3.org/1999/xlink" viewBox="0 0 401 671.75">
 <g>
  <rect height="671.75" opacity="0" width="401" x="0" y="0"/>
  <path d="M0 588.75C0 639.25 33 671.25 85.25 671.25L315.5 671.25C367.75 671.25 401 639.25 401 588.75L401 82.5C401 32 367.75 0 315.5 0L85.25 0C33 0 0 32 0 82.5ZM44.25 582.25L44.25 89C44.25 59.75 60.25 44.25 90.75 44.25L310.25 44.25C340.5 44.25 356.5 59.75 356.5 89L356.5 582.25C356.5 611.5 340.5 627 310.25 627L90.75 627C60.25 627 44.25 611.5 44.25 582.25Z" fill="black" fill-opacity="0.85"/>
  <path d="M103.5 581L133.25 581C140.5 581 145.75 576.25 145.75 569.25L145.75 538.5C145.75 531.75 140.5 527 133.25 527L103.5 527C96.5 527 91.75 531.75 91.75 538.5L91.75 569.25C91.75 576.25 96.5 581 103.5 581ZM185 581L215 581C222.25 581 227.25 576.25 227.25 569.25L227.25 538.5C227.25 531.75 222.25 527 215 527L185 527C178 527 173.25 531.75 173.25 538.5L173.25 569.25C173.25 576.25 178 581 185 581ZM266.5 581L296.5 581C303.75 581 309 576.25 309 569.25L309 538.5C309 531.75 303.75 527 296.5 527L266.5 527C259.75 527 255 531.75 255 538.5L255 569.25C255 576.25 259.75 581 266.5 581ZM103.5 321.25L133.25 321.25C140.5 321.25 145.75 316.5 145.75 309.25L145.75 278.75C145.75 271.75 140.5 267 133.25 267L103.5 267C96.5 267 91.75 271.75 91.75 278.75L91.75 309.25C91.75 316.5 96.5 321.25 103.5 321.25ZM185 321.25L215 321.25C222.25 321.25 227.25 316.5 227.25 309.25L227.25 278.75C227.25 271.75 222.25 267 215 267L185 267C178 267 173.25 271.75 173.25 278.75L173.25 309.25C173.25 316.5 178 321.25 185 321.25ZM103.5 234.5L133.25 234.5C140.5 234.5 145.75 229.75 145.75 223L145.75 192.25C145.75 185.25 140.5 180.5 133.25 180.5L103.5 180.5C96.5 180.5 91.75 185.25 91.75 192.25L91.75 223C91.75 229.75 96.5 234.5 103.5 234.5ZM185 234.5L215 234.5C222.25 234.5 227.25 229.75 227.25 223L227.25 192.25C227.25 185.25 222.25 180.5 215 180.5L185 180.5C178 180.5 173.25 185.25 173.25 192.25L173.25 223C173.25 229.75 178 234.5 185 234.5ZM266.5 234.5L296.5 234.5C303.75 234.5 309 229.75 309 223L309 192.25C309 185.25 303.75 180.5 296.5 180.5L266.5 180.5C259.75 180.5 255 185.25 255 192.25L255 223C255 229.75 259.75 234.5 266.5 234.5ZM103.5 148L133.25 148C140.5 148 145.75 143.25 145.75 136.5L145.75 105.75C145.75 99 140.5 94 133.25 94L103.5 94C96.5 94 91.75 99 91.75 105.75L91.75 136.5C91.75 143.25 96.5 148 103.5 148ZM185 148L215 148C222.25 148 227.25 143.25 227.25 136.5L227.25 105.75C227.25 99 222.25 94 215 94L185 94C178 94 173.25 99 173.25 105.75L173.25 136.5C173.25 143.25 178 148 185 148ZM266.5 148L296.5 148C303.75 148 309 143.25 309 136.5L309 105.75C309 99 303.75 94 296.5 94L266.5 94C259.75 94 255 99 255 105.75L255 136.5C255 143.25 259.75 148 266.5 148Z" fill="black" fill-opacity="0.85"/>
 </g>
</svg>
