<?xml version="1.0" encoding="UTF-8"?>
<!--Generator: Apple Native CoreSVG 326-->
<!DOCTYPE svg
PUBLIC "-//W3C//DTD SVG 1.1//EN"
       "http://www.w3.org/Graphics/SVG/1.1/DTD/svg11.dtd">
<svg version="1.1" xmlns="http://www.w3.org/2000/svg" xmlns:xlink="http://www.w3.org/1999/xlink" viewBox="0 0 757.5 587.75">
 <g>
  <rect height="587.75" opacity="0" width="757.5" x="0" y="0"/>
  <path d="M598 154.75C619.5 154.25 637.5 136.25 637.5 115C637.5 93 619.5 74.75 598 74.75C576.5 74.75 558 93 558 115C558 136.25 576.5 155 598 154.75ZM598 333.5C619.5 333 637.5 315 637.5 293.5C637.5 271.75 619.5 253.25 598 253.25C576.5 253.25 558 271.75 558 293.5C558 315 576.5 333.75 598 333.5ZM598 512C619.5 511.75 637.5 493.75 637.5 472.25C637.5 450.5 619.5 432 598 432C576.5 432 558 450.5 558 472.25C558 493.75 576.5 512.5 598 512ZM733.75 225L733.75 183.25L25.25 183.25L25.25 225ZM733.75 405.25L733.75 363.5L25.25 363.5L25.25 405.25ZM97.25 587.75L660 587.75C724.75 587.75 757.5 555 757.5 491.5L757.5 96.5C757.5 32.75 724.75 0 660 0L97.25 0C32.75 0 0 32.5 0 96.5L0 491.5C0 555.5 32.75 587.75 97.25 587.75ZM98.25 543.5C63.25 543.5 44.25 525 44.25 489L44.25 98.75C44.25 63 63.25 44.25 98.25 44.25L659.25 44.25C693.5 44.25 713 63 713 98.75L713 489C713 525 693.5 543.5 659.25 543.5Z" fill="black" fill-opacity="0.85"/>
 </g>
</svg>
