<svg xmlns="http://www.w3.org/2000/svg" width="512" height="512"><path fill="currentColor" fill-rule="evenodd" d="M345.527 245c7.44 0 13.473 6.013 13.473 13.43v81.575c0 7.417-6.032 13.43-13.473 13.43h-69.764v52.85c0 3.709-3.016 6.715-6.736 6.715h-24.452c-3.72 0-6.736-3.006-6.736-6.715v-52.85h-67.09a13.498 13.498 0 0 1-8.924-3.369L115.55 309.28c-5.575-4.913-6.098-13.4-1.17-18.958.366-.411.757-.8 1.17-1.164l46.276-40.788A13.498 13.498 0 0 1 170.75 245h174.777ZM274.715 92.745c.343 1.196.517 2.434.517 3.677l-.001 22.232h75.962c3.29 0 6.468 1.198 8.933 3.367l46.321 40.753c5.58 4.91 6.104 13.39 1.17 18.942-.366.411-.756.8-1.17 1.164l-46.321 40.754a13.525 13.525 0 0 1-8.933 3.366H187.486c-7.448 0-13.486-6.008-13.486-13.419v-81.508c0-7.41 6.038-13.419 13.486-13.419h49.784V99.538c0-5.995 3.997-11.263 9.792-12.906l10.988-3.115c7.163-2.03 14.625 2.101 16.665 9.228Z"/></svg>
