<svg xmlns="http://www.w3.org/2000/svg" viewBox="0 0 512 512"><path fill="none" fill-rule="evenodd" stroke="#000" stroke-linejoin="round" stroke-width="30" transform="scale(0.6) translate(150 150)" d="M394.487 239c11.88 0 21.513 9.055 21.513 20.225v122.848c0 11.17-9.632 20.225-21.513 20.225H283.089v79.59c0 5.585-4.816 10.112-10.756 10.112h-39.044c-5.94 0-10.756-4.527-10.756-10.112v-79.59H115.405c-5.247 0-10.313-1.803-14.25-5.074l-73.891-61.421c-8.902-7.4-9.737-20.18-1.868-28.55a21.265 21.265 0 0 1 1.868-1.753l73.893-61.425c3.936-3.27 9.003-5.075 14.25-5.075h279.08ZM274.059 35.685c.548 1.802.827 3.668.827 5.54l-.002 33.503h121.475c5.261 0 10.343 1.806 14.285 5.074l74.075 61.413c8.923 7.399 9.76 20.178 1.87 28.544a21.067 21.067 0 0 1-1.87 1.755l-74.075 61.414c-3.95 3.27-9.027 5.072-14.285 5.072H134.566c-11.91 0-21.566-9.054-21.566-20.222V94.95c0-11.166 9.656-20.222 21.566-20.222h79.612V45.922c0-9.035 6.392-16.973 15.66-19.45l17.57-4.693c11.456-3.06 23.389 3.166 26.65 13.906Z"/></svg>
