<?xml version="1.0" encoding="UTF-8"?>
<!--Generator: Apple Native CoreSVG 326-->
<!DOCTYPE svg
PUBLIC "-//W3C//DTD SVG 1.1//EN"
       "http://www.w3.org/Graphics/SVG/1.1/DTD/svg11.dtd">
<svg version="1.1" xmlns="http://www.w3.org/2000/svg" xmlns:xlink="http://www.w3.org/1999/xlink" viewBox="0 0 757.5 587.75">
 <g>
  <rect height="587.75" opacity="0" width="757.5" x="0" y="0"/>
  <path d="M97.25 587.75L660 587.75C724.75 587.75 757.5 555 757.5 491.5L757.5 96.5C757.5 32.75 724.75 0 660 0L97.25 0C32.75 0 0 32.5 0 96.5L0 491.5C0 555.5 32.75 587.75 97.25 587.75ZM98.25 543.5C63.25 543.5 44.25 525 44.25 489L44.25 98.75C44.25 63 63.25 44.25 98.25 44.25L659.25 44.25C693.5 44.25 713 63 713 98.75L713 489C713 525 693.5 543.5 659.25 543.5Z" fill="black" fill-opacity="0.85"/>
  <path d="M135.75 245.5C113.5 258.75 132.25 292.25 156.5 277L250.25 218.25C266.5 208.25 265.75 184.25 250.25 174.5L156.5 115.75C132.25 100.5 113.25 133.75 135.75 147.5L216.75 196.5ZM269.25 279.25C269.25 289.25 277 297.25 287.25 297.25L410 297.25C420.25 297.25 428 289.25 428 279.25C428 269 420.25 261 410 261L287.25 261C277 261 269.25 269 269.25 279.25Z" fill="black" fill-opacity="0.85"/>
 </g>
</svg>
