<?xml version="1.0" encoding="utf-8"?>
<svg version="1.1" id="Swift" xmlns="http://www.w3.org/2000/svg" xmlns:xlink="http://www.w3.org/1999/xlink" x="0px" y="0px"
	 viewBox="0 0 60 60" style="enable-background:new 0 0 48 48;" xml:space="preserve">
<style type="text/css">
	.st0{fill:#221F20;}
	.st1{fill:#EF5138;}
	.st2{fill:#FFFFFF;}
</style>
<title>Swift.org</title>
<desc>Swift Logo</desc>
<g>
	<path class="st1" d="M42.9,59.7H15.7c-5.5,0-10-4.5-10-10V22.7c0-5.5,4.5-10,10-10h27.1c5.5,0,10,4.5,10,10v27.1
		C52.9,55.2,48.4,59.7,42.9,59.7z"/>
	<path class="st2" d="M42.8,41.7C42.8,41.7,42.8,41.7,42.8,41.7c0-0.2,0.1-0.4,0.1-0.5c2-7.8-2.8-17-10.9-21.8
		c3.5,4.8,5.1,10.6,3.7,15.7c-0.1,0.5-0.3,0.9-0.4,1.3c-0.2-0.1-0.4-0.2-0.7-0.4c0,0-8-5-16.7-13.7c-0.2-0.2,4.6,7,10.2,12.8
		c-2.6-1.5-9.9-6.7-14.4-10.9c0.6,0.9,1.2,1.8,2,2.7c3.8,4.9,8.8,10.9,14.8,15.5c-4.2,2.6-10.2,2.8-16.1,0c-1.5-0.7-2.8-1.5-4.1-2.5
		c2.5,4,6.4,7.5,11.1,9.5c5.6,2.4,11.2,2.2,15.3,0l0,0c1.7-1.1,6.3-2.8,8.6,1.7C45.7,52,46.8,46.7,42.8,41.7z"/>
</g>
</svg>
