<?xml version="1.0" encoding="utf-8"?>
<svg version="1.1" id="Layer_1" xmlns="http://www.w3.org/2000/svg" xmlns:xlink="http://www.w3.org/1999/xlink" x="0px" y="0px"
	 viewBox="0 0 16 16" enable-background="new 0 0 16 16" xml:space="preserve">
<path id="Fill-62" d="M12.3,9.2c-0.8-0.7-0.5-0.7-1.3-1.1c0,0-3.6-2.2-7.5-6.2C3.4,1.8,5.5,5,8,7.7C6.9,7,3.6,4.6,1.5,2.7
	C1.8,3.2,2.1,3.6,2.4,4c1.7,2.2,4,4.9,6.7,7c0.6,0.7,0.8,0.8,1.7,1.4c2.4,1.7,3.6,1.2,3.7,0.9l0,0C14.6,12.8,14.5,11.2,12.3,9.2"/>
<path id="Fill-63" d="M9.8,0.6c1.6,2.2,2.3,4.8,1.7,7.1c-1,3.8-5.4,5.3-9.7,3.2C1.2,10.6,0.6,10.2,0,9.8c1.1,1.8,2.9,3.4,5,4.3
	c4.4,1.9,8.8,0.3,9.8-3.6C15.6,6.9,13.5,2.8,9.8,0.6"/>
<path id="Fill-64" d="M11.9,14.1c0.8-0.5,2.8-1.3,3.9,0.8c0.2,0.5,0.7-1.9-1.1-4.2C13,8.6,13.3,12,13.3,12L11.9,14.1z"/>
</svg>
