<?xml version="1.0" encoding="UTF-8"?>
<svg width="25px" height="16px" viewBox="0 0 25 16" version="1.1" xmlns="http://www.w3.org/2000/svg" xmlns:xlink="http://www.w3.org/1999/xlink">
    <title>􀟞</title>
    <g id="Page-1" stroke="none" stroke-width="1" fill="none" fill-rule="evenodd">
        <g id="home" transform="translate(-525, -891)" fill="#742D2D" fill-rule="nonzero">
            <g id="Group-3" transform="translate(220, 666)">
                <g id="neonPill" transform="translate(286.427, 208)">
                    <g id="􀟞" transform="translate(19.3557, 17.2834)">
                        <path d="M5.33454895,5.95733643 C5.33454895,6.18264771 5.397995,6.35964203 5.52488708,6.4883194 C5.65177917,6.61699677 5.83081055,6.68133545 6.0619812,6.68133545 L7.49981689,6.68133545 L7.49981689,8.08854675 C7.49981689,8.31028748 7.56207275,8.48634338 7.68658447,8.61671448 C7.81109619,8.74708557 7.98394775,8.81227112 8.20513916,8.81227112 C8.4156189,8.81227112 8.58327484,8.74708557 8.70810699,8.61671448 C8.83293915,8.48634338 8.89535522,8.31028748 8.89535522,8.08854675 L8.89535522,6.68133545 L10.2549133,6.68133545 C10.4989014,6.68133545 10.6888962,6.61699677 10.8248978,6.4883194 C10.9608994,6.35964203 11.0289001,6.18264771 11.0289001,5.95733643 C11.0289001,5.74264526 10.9608994,5.57093811 10.8248978,5.44221497 C10.6888962,5.31349182 10.4989014,5.24913025 10.2549133,5.24913025 L8.89535522,5.24913025 L8.89535522,3.85070801 C8.89535522,3.62905884 8.83293915,3.45302582 8.70810699,3.32260895 C8.58327484,3.19219208 8.4156189,3.12698364 8.20513916,3.12698364 C7.98394775,3.12698364 7.81109619,3.19219208 7.68658447,3.32260895 C7.56207275,3.45302582 7.49981689,3.62905884 7.49981689,3.85070801 L7.49981689,5.24913025 L6.0619812,5.24913025 C5.83081055,5.24913025 5.65177917,5.31349182 5.52488708,5.44221497 C5.397995,5.57093811 5.33454895,5.74264526 5.33454895,5.95733643 Z M17.274765,5.86628723 C17.6144257,5.86628723 17.901535,5.75047302 18.1360931,5.5188446 C18.3706512,5.28721619 18.4879303,4.99891663 18.4879303,4.65394592 C18.4879303,4.30961609 18.3706512,4.02017212 18.1360931,3.78561401 C17.901535,3.55105591 17.6144257,3.43377686 17.274765,3.43377686 C16.9362946,3.43377686 16.6496429,3.55105591 16.4148102,3.78561401 C16.1799774,4.02017212 16.062561,4.30961609 16.062561,4.65394592 C16.062561,4.99891663 16.1799774,5.28721619 16.4148102,5.5188446 C16.6496429,5.75047302 16.9362946,5.86628723 17.274765,5.86628723 Z M14.8116302,8.34507751 C15.1559601,8.34507751 15.4442368,8.22912598 15.6764603,7.9972229 C15.9086838,7.76531982 16.0247955,7.47715759 16.0247955,7.13273621 C16.0247955,6.78840637 15.9086838,6.49882507 15.6764603,6.26399231 C15.4442368,6.02915955 15.1559601,5.91174316 14.8116302,5.91174316 C14.4725189,5.91174316 14.1868744,6.02915955 13.9546967,6.26399231 C13.7225189,6.49882507 13.6064301,6.78840637 13.6064301,7.13273621 C13.6064301,7.47715759 13.7225189,7.76531982 13.9546967,7.9972229 C14.1868744,8.22912598 14.4725189,8.34507751 14.8116302,8.34507751 Z M0,11.9557343 C0,12.6191254 0.134513855,13.1940308 0.403541565,13.6804504 C0.672569275,14.1668701 1.04912567,14.5427628 1.53321075,14.8081284 C2.01729584,15.073494 2.57798767,15.2061768 3.21528625,15.2061768 C3.72743225,15.2061768 4.21852112,15.0967484 4.68855286,14.8778915 C5.15858459,14.6590347 5.57478333,14.335144 5.93714905,13.9062195 L7.42565918,12.1308289 C7.53048706,12.0053101 7.64174652,11.9113083 7.75943756,11.8488235 C7.8771286,11.7863388 7.99864197,11.7550964 8.12397766,11.7550964 L16.0572052,11.7550964 C16.1825409,11.7550964 16.3040314,11.7863388 16.4216766,11.8488235 C16.5393219,11.9113083 16.6508789,12.0053101 16.7563477,12.1308289 L18.2448578,13.9062195 C18.6077728,14.3345947 19.0239716,14.6583481 19.493454,14.8774796 C19.9629364,15.096611 20.4566803,15.2061768 20.9746857,15.2061768 C21.6114349,15.2061768 22.1705017,15.073494 22.651886,14.8081284 C23.1332703,14.5427628 23.5084991,14.1668701 23.7775726,13.6804504 C24.0466461,13.1940308 24.1811829,12.6191254 24.1811829,11.9557343 C24.1811829,11.5295563 24.13591,11.0734406 24.0453644,10.5873871 C23.9548187,10.1013336 23.8292999,9.58625793 23.668808,9.04216003 C23.4983368,8.47206116 23.2913818,7.85071564 23.0479431,7.17812347 C22.8045044,6.50553131 22.54216,5.82778931 22.26091,5.14489746 C21.97966,4.46200562 21.69841,3.82228088 21.41716,3.22572327 C21.1762848,2.72071838 20.9498749,2.29957581 20.7379303,1.96229553 C20.5259857,1.62501526 20.253891,1.34793091 19.9216461,1.13104248 C19.5894012,0.914154053 19.1249084,0.737228394 18.5281677,0.600265503 C17.7344971,0.422195435 16.7969742,0.277633667 15.7155991,0.1665802 C14.6342239,0.0555267334 13.4273529,0 12.094986,0 C10.762619,0 9.55439758,0.0555267334 8.47032166,0.1665802 C7.38624573,0.277633667 6.45002747,0.422195435 5.66166687,0.600265503 C5.06446838,0.737228394 4.59841919,0.914154053 4.26351929,1.13104248 C3.92861938,1.34793091 3.65531158,1.62501526 3.44359589,1.96229553 C3.23188019,2.29957581 3.00828552,2.72071838 2.77281189,3.22572327 C2.48625183,3.82228088 2.2023468,4.46200562 1.9210968,5.14489746 C1.6398468,5.82778931 1.37882996,6.50553131 1.13804626,7.17812347 C0.897262573,7.85071564 0.691314697,8.47206116 0.520202637,9.04216003 C0.355041504,9.58625793 0.227050781,10.1013336 0.136230469,10.5873871 C0.0454101563,11.0734406 0,11.5295563 0,11.9557343 Z M1.41531372,11.9770203 C1.41531372,11.717926 1.44550323,11.4258041 1.50588226,11.1006546 C1.56626129,10.7755051 1.66268921,10.3907776 1.79516602,9.94647217 C1.97854614,9.30551147 2.2006073,8.61971283 2.46134949,7.88907623 C2.72209167,7.15843964 2.99880981,6.43306732 3.29150391,5.71295929 C3.584198,4.99285126 3.87084961,4.32893372 4.15145874,3.72120667 C4.28512573,3.42521667 4.41396332,3.16989899 4.5379715,2.9552536 C4.66197968,2.74060822 4.82020569,2.5612793 5.01264954,2.41726685 C5.20509338,2.27325439 5.47238159,2.15927124 5.81451416,2.07531738 C6.57485962,1.89779663 7.48397827,1.7539444 8.54187012,1.64376068 C9.59976196,1.53357697 10.7841339,1.47848511 12.094986,1.47848511 C13.4057465,1.47848511 14.5899353,1.53357697 15.6475525,1.64376068 C16.7051697,1.7539444 17.6144714,1.89779663 18.3754578,2.07531738 C18.7175903,2.15927124 18.983551,2.27325439 19.1733398,2.41726685 C19.3631287,2.5612793 19.5198669,2.74060822 19.6435547,2.9552536 C19.7672424,3.16989899 19.8961945,3.42521667 20.0304108,3.72120667 C20.3158722,4.32893372 20.6036224,4.99285126 20.8936615,5.71295929 C21.1837006,6.43306732 21.457901,7.15843964 21.7162628,7.88907623 C21.9746246,8.61971283 22.2004852,9.30551147 22.3938446,9.94647217 C22.5263214,10.3907776 22.621582,10.7755051 22.6796265,11.1006546 C22.7376709,11.4258041 22.7666931,11.717926 22.7666931,11.9770203 C22.7666931,12.5314636 22.5943451,12.9702072 22.249649,13.293251 C21.904953,13.6162949 21.4762115,13.7778168 20.9634247,13.7778168 C20.3347321,13.7778168 19.7688904,13.4798126 19.2658997,12.8838043 L17.6504974,10.9898987 C17.4495392,10.7478333 17.2459259,10.5684357 17.0396576,10.4517059 C16.8333893,10.3349762 16.5428009,10.2766113 16.1678925,10.2766113 L8.02111816,10.2766113 C7.64630127,10.2766113 7.35440826,10.3349762 7.14543915,10.4517059 C6.93647003,10.5684357 6.73155212,10.7478333 6.53068542,10.9898987 L4.92407227,12.8838043 C4.68136597,13.1688995 4.41460419,13.3891754 4.12378693,13.544632 C3.83296967,13.7000885 3.53388977,13.7778168 3.22654724,13.7778168 C2.70845032,13.7778168 2.27705383,13.6162949 1.93235779,13.293251 C1.58766174,12.9702072 1.41531372,12.5314636 1.41531372,11.9770203 Z" id="Shape"></path>
                    </g>
                </g>
            </g>
        </g>
    </g>
</svg>