<svg enable-background="new 0 0 16 16" viewBox="0 0 16 16" xmlns="http://www.w3.org/2000/svg"><g fill="#f05138"><path d="m12.3 9.2c-.8-.7-.5-.7-1.3-1.1 0 0-3.6-2.2-7.5-6.2-.1-.1 2 3.1 4.5 5.8-1.1-.7-4.4-3.1-6.5-5 .3.5.6.9.9 1.3 1.7 2.2 4 4.9 6.7 7 .6.7.8.8 1.7 1.4 2.4 1.7 3.6 1.2 3.7.9.1-.5 0-2.1-2.2-4.1"/><path d="m9.8.6c1.6 2.2 2.3 4.8 1.7 7.1-1 3.8-5.4 5.3-9.7 3.2-.6-.3-1.2-.7-1.8-1.1 1.1 1.8 2.9 3.4 5 4.3 4.4 1.9 8.8.3 9.8-3.6.8-3.6-1.3-7.7-5-9.9"/><path d="m11.9 14.1c.8-.5 2.8-1.3 3.9.8.2.5.7-1.9-1.1-4.2-1.7-2.1-1.4 1.3-1.4 1.3z"/></g></svg>