<?xml version="1.0" encoding="UTF-8"?>
<svg width="39px" height="34px" viewBox="0 0 39 34" version="1.1" xmlns="http://www.w3.org/2000/svg" xmlns:xlink="http://www.w3.org/1999/xlink">
    <title>embedded</title>
    <g id="embedded" stroke="none" stroke-width="1" fill="none" fill-rule="evenodd">
        <g id="Group" transform="translate(19.5, 17.4717) rotate(90) translate(-19.5, -17.4717)translate(3, -1.0283)">
            <rect id="Rectangle" stroke="#801A1A" stroke-width="2" x="8" y="8.02832031" width="17" height="21" rx="4"></rect>
            <rect id="Rectangle" fill="#80191A" x="0" y="10.0283203" width="5" height="3" rx="1"></rect>
            <rect id="Rectangle" fill="#80191A" x="0" y="17.0283203" width="5" height="3" rx="1"></rect>
            <rect id="Rectangle" fill="#80191A" x="0" y="24.0283203" width="5" height="3" rx="1"></rect>
            <rect id="Rectangle" fill="#80191A" x="28" y="10.0283203" width="5" height="3" rx="1"></rect>
            <rect id="Rectangle" fill="#80191A" x="28" y="17.0283203" width="5" height="3" rx="1"></rect>
            <rect id="Rectangle" fill="#80191A" x="28" y="24.0283203" width="5" height="3" rx="1"></rect>
            <rect id="Rectangle" fill="#80191A" transform="translate(10.5, 2.5) rotate(-90) translate(-10.5, -2.5)" x="8" y="1" width="5" height="3" rx="1"></rect>
            <rect id="Rectangle" fill="#80191A" transform="translate(16.5, 2.5) rotate(-90) translate(-16.5, -2.5)" x="14" y="1" width="5" height="3" rx="1"></rect>
            <rect id="Rectangle" fill="#80191A" transform="translate(22.5, 2.5) rotate(-90) translate(-22.5, -2.5)" x="20" y="1" width="5" height="3" rx="1"></rect>
            <rect id="Rectangle" fill="#80191A" transform="translate(10.5, 34.5) rotate(-90) translate(-10.5, -34.5)" x="8" y="33" width="5" height="3" rx="1"></rect>
            <rect id="Rectangle" fill="#80191A" transform="translate(16.5, 34.5) rotate(-90) translate(-16.5, -34.5)" x="14" y="33" width="5" height="3" rx="1"></rect>
            <rect id="Rectangle" fill="#80191A" transform="translate(22.5, 34.5) rotate(-90) translate(-22.5, -34.5)" x="20" y="33" width="5" height="3" rx="1"></rect>
        </g>
    </g>
</svg>