<?xml version="1.0" encoding="UTF-8"?>
<svg width="21px" height="16px" viewBox="0 0 21 16" version="1.1" xmlns="http://www.w3.org/2000/svg" xmlns:xlink="http://www.w3.org/1999/xlink">
    <title>􀟞</title>
    <g id="Page-1" stroke="none" stroke-width="1" fill="none" fill-rule="evenodd">
        <g id="home" transform="translate(-241, -891)" fill="#742D2D" fill-rule="nonzero">
            <g id="Group-3" transform="translate(220, 666)">
                <g id="neonPill" transform="translate(1, 208)">
                    <g id="􀟞" transform="translate(20.4816, 17.1326)">
                        <path d="M0,12.7749023 C0,13.6526184 0.224899292,14.3122787 0.674697876,14.7538834 C1.12449646,15.195488 1.79063416,15.4162903 2.67311096,15.4162903 L16.9810181,15.4162903 C17.8693542,15.4162903 18.537117,15.1941605 18.9843063,14.7499008 C19.4314957,14.3056412 19.6550903,13.6473083 19.6550903,12.7749023 L19.6550903,2.64138794 C19.6550903,1.76953125 19.4314957,1.11133575 18.9843063,0.666801453 C18.537117,0.222267151 17.8693542,0 16.9810181,0 L2.67311096,0 C1.79063416,0 1.12449646,0.220939636 0.674697876,0.662818909 C0.224899292,1.10469818 0,1.76422119 0,2.64138794 L0,12.7749023 Z M2.7648468,2.88638306 C2.55464172,2.88638306 2.37606812,2.80892944 2.22912598,2.65402222 C2.08218384,2.49911499 2.00871277,2.3218689 2.00871277,2.12228394 C2.00871277,1.92388916 2.08218384,1.74856567 2.22912598,1.59631348 C2.37606812,1.44406128 2.55464172,1.36793518 2.7648468,1.36793518 C2.97441101,1.36793518 3.15385437,1.44406128 3.30317688,1.59631348 C3.45249939,1.74856567 3.52716064,1.92388916 3.52716064,2.12228394 C3.52716064,2.3218689 3.45249939,2.49911499 3.30317688,2.65402222 C3.15385437,2.80892944 2.97441101,2.88638306 2.7648468,2.88638306 Z M5.18856812,2.88638306 C4.97900391,2.88638306 4.799263,2.81025696 4.6493454,2.65800476 C4.4994278,2.50575256 4.42446899,2.32717896 4.42446899,2.12228394 C4.42446899,1.92388916 4.4994278,1.74856567 4.6493454,1.59631348 C4.799263,1.44406128 4.97900391,1.36793518 5.18856812,1.36793518 C5.39813232,1.36793518 5.57640839,1.44406128 5.7233963,1.59631348 C5.87038422,1.74856567 5.94387817,1.92388916 5.94387817,2.12228394 C5.94387817,2.32717896 5.87038422,2.50575256 5.7233963,2.65800476 C5.57640839,2.81025696 5.39813232,2.88638306 5.18856812,2.88638306 Z M7.60514832,2.87841797 C7.39503479,2.87841797 7.21650696,2.80361938 7.06956482,2.65402222 C6.92262268,2.50442505 6.84915161,2.32717896 6.84915161,2.12228394 C6.84915161,1.92388916 6.92262268,1.74856567 7.06956482,1.59631348 C7.21650696,1.44406128 7.39503479,1.36793518 7.60514832,1.36793518 C7.81480408,1.36793518 7.99443054,1.44406128 8.14402771,1.59631348 C8.29362488,1.74856567 8.36842346,1.92388916 8.36842346,2.12228394 C8.36842346,2.32717896 8.29362488,2.50442505 8.14402771,2.65402222 C7.99443054,2.80361938 7.81480408,2.87841797 7.60514832,2.87841797 Z M1.50004578,12.6680603 L1.50004578,4.25514221 L18.1630096,4.25514221 L18.1630096,12.6680603 C18.1630096,13.0864563 18.0550232,13.4004135 17.8390503,13.6099319 C17.6230774,13.8194504 17.3173828,13.9242096 16.9219666,13.9242096 L2.7322998,13.9242096 C2.33743286,13.9242096 2.03334045,13.8194504 1.82002258,13.6099319 C1.60670471,13.4004135 1.50004578,13.0864563 1.50004578,12.6680603 Z" id="Shape"></path>
                    </g>
                </g>
            </g>
        </g>
    </g>
</svg>