<?xml version="1.0" encoding="UTF-8"?>
<svg width="18px" height="19px" viewBox="0 0 18 19" version="1.1" xmlns="http://www.w3.org/2000/svg" xmlns:xlink="http://www.w3.org/1999/xlink">
    <title>􀟞</title>
    <g id="Page-1" stroke="none" stroke-width="1" fill="none" fill-rule="evenodd">
        <g id="home" transform="translate(-1057, -889)" fill="#742D2D" fill-rule="nonzero">
            <g id="Group-3" transform="translate(220, 666)">
                <g id="neonPill" transform="translate(817, 208)">
                    <g id="􀟞" transform="translate(20.9552, 15.8026)">
                        <path d="M1.18597412,14.3072205 L7.74536133,17.9984894 C7.97689819,18.1309662 8.20596313,18.1972046 8.43255615,18.1972046 C8.65914917,18.1972046 8.89086914,18.1309662 9.12771606,17.9984894 L15.6880646,14.3072205 C16.078537,14.0817261 16.3723297,13.8270035 16.5694427,13.5430527 C16.7665558,13.2591019 16.8651123,12.8205414 16.8651123,12.2273712 L16.8651123,5.57226562 C16.8651123,5.13830566 16.78125,4.77626038 16.6135254,4.48612976 C16.4458008,4.19599915 16.1805267,3.94670105 15.8177032,3.73823547 L9.95896912,0.424484253 C9.4493866,0.141494751 8.9407196,0 8.43296814,0 C7.92521667,0 7.41659546,0.141494751 6.90710449,0.424484253 L1.04837036,3.73823547 C0.685546875,3.94670105 0.42011261,4.19599915 0.252067566,4.48612976 C0.084022522,4.77626038 0,5.13830566 0,5.57226562 L0,12.2273712 C0,12.8205414 0.10004425,13.2591019 0.300132751,13.5430527 C0.500221252,13.8270035 0.795501709,14.0817261 1.18597412,14.3072205 Z M2.00569153,13.1127319 C1.77809143,12.9819031 1.61707306,12.8421707 1.52263641,12.6935349 C1.42819977,12.544899 1.38098145,12.3565063 1.38098145,12.1283569 L1.38098145,5.97546387 L7.72105408,9.57554626 L7.72105408,16.3519135 L2.00569153,13.1127319 Z M14.8595581,13.1127319 L9.15284729,16.3519135 L9.15284729,9.57554626 L15.4929199,5.97546387 L15.4929199,12.1283569 C15.4929199,12.3565063 15.4457245,12.544899 15.3513336,12.6935349 C15.2569427,12.8421707 15.0930176,12.9819031 14.8595581,13.1127319 Z M8.43255615,8.30223083 L2.16087341,4.77149963 L4.6028595,3.37733459 L10.8771515,6.92207336 L8.43255615,8.30223083 Z M12.3386078,6.10510254 L6.04385376,2.56654358 L7.51766968,1.73007202 C8.13821411,1.37924194 8.74845886,1.37924194 9.34840393,1.73007202 L14.7052002,4.77149963 L12.3386078,6.10510254 Z" id="Shape"></path>
                    </g>
                </g>
            </g>
        </g>
    </g>
</svg>