<?xml version="1.0" encoding="UTF-8"?>
<svg width="18px" height="18px" viewBox="0 0 18 18" version="1.1" xmlns="http://www.w3.org/2000/svg" xmlns:xlink="http://www.w3.org/1999/xlink">
    <title>􀟞</title>
    <g id="Page-1" stroke="none" stroke-width="1" fill="none" fill-rule="evenodd">
        <g id="home" transform="translate(-399, -890)" fill="#742D2D" fill-rule="nonzero">
            <g id="Group-3" transform="translate(220, 666)">
                <g id="neonPill" transform="translate(160.481, 208)">
                    <g id="􀟞" transform="translate(19.3807, 16.2897)">
                        <path d="M1.40501404,4.99095154 C2.08653259,5.72428894 2.85314941,6.35103607 3.7048645,6.87119293 C4.55657959,7.39134979 5.46624756,7.78761292 6.43386841,8.0599823 C7.40148926,8.33235168 8.397995,8.46588135 9.42338562,8.46057129 C10.6366425,8.46057129 11.8103485,8.26130676 12.9445038,7.86277771 C14.0786591,7.46424866 15.1150818,6.89048767 16.053772,6.14149475 L15.5556793,5.14627075 C14.6977386,5.86651611 13.7444916,6.41976929 12.6959381,6.80603027 C11.6473846,7.19229126 10.5565338,7.38803101 9.42338562,7.39324951 C7.94911194,7.39855957 6.55709839,7.09341431 5.24734497,6.47781372 C3.93759155,5.86221313 2.81959534,4.99740601 1.89335632,3.88339233 L1.40501404,4.99095154 Z M0.500015259,9.72427368 C1.58564758,10.6546326 2.76841736,11.3920898 4.04832458,11.9366455 C5.32823181,12.4812012 6.65263367,12.8311157 8.02153015,12.9863892 C9.39042664,13.1416626 10.756279,13.0965729 12.1190872,12.85112 C13.4818954,12.6056671 14.7884216,12.1555023 16.0386658,11.5006256 L16.0080414,10.2807312 C14.7963409,10.9870605 13.5203476,11.4769821 12.1800613,11.7504959 C10.8397751,12.0240097 9.4933548,12.0832672 8.14080048,11.9282684 C6.78824615,11.7732697 5.48311615,11.4100342 4.22541046,10.838562 C2.96770477,10.2670898 1.81558228,9.49456787 0.769042969,8.52099609 L0.500015259,9.72427368 Z M4.63389587,15.4414215 L5.90734863,15.7362671 C5.61593628,15.0494385 5.39442444,14.3458328 5.24281311,13.6254501 C5.09120178,12.9050674 5.01013184,12.1701965 4.99960327,11.4208374 C4.92544556,10.0517578 5.06760406,8.72122192 5.4260788,7.42922974 C5.78455353,6.13723755 6.32938385,4.92929077 7.06056976,3.8053894 C7.79175568,2.68148804 8.68496704,1.69047546 9.74020386,0.832351685 L8.6158905,0.37902832 C7.56770325,1.30563354 6.68268585,2.3578949 5.96083832,3.53581238 C5.23899078,4.71372986 4.70322418,5.97340393 4.35353851,7.31483459 C4.00385284,8.65626526 3.86077881,10.0328522 3.92431641,11.4445953 C3.93493652,12.1214447 3.99996185,12.793602 4.1193924,13.4610672 C4.23882294,14.1285324 4.4103241,14.7886505 4.63389587,15.4414215 Z M10.1429901,16.2638855 L11.1356049,15.8219604 C10.357132,14.7279968 9.76036835,13.5424805 9.34531403,12.2654114 C8.9302597,10.9883423 8.72273254,9.67012024 8.72273254,8.31074524 C8.72273254,7.02397156 8.90785217,5.77631378 9.27809143,4.56777191 C9.64833069,3.35923004 10.1835022,2.23457336 10.883606,1.19380188 L9.84361267,0.821914673 C9.13179016,1.93574524 8.58899689,3.12940979 8.21523285,4.40290833 C7.84146881,5.67640686 7.65458679,6.97901917 7.65458679,8.31074524 C7.65458679,9.75022888 7.86692047,11.1447372 8.29158783,12.4942703 C8.71625519,13.8438034 9.33338928,15.1003418 10.1429901,16.2638855 Z M15.0113068,13.1892242 L15.7276154,12.3744507 C14.7936859,11.8387756 13.9876328,11.1717453 13.3094559,10.3733597 C12.631279,9.57497406 12.1048508,8.68283844 11.7301712,7.69695282 C11.3554916,6.7110672 11.1628418,5.67402649 11.1522217,4.58583069 C11.1416016,4.00749207 11.1879959,3.43281555 11.2914047,2.86180115 C11.3948135,2.29078674 11.5504761,1.73753357 11.7583923,1.20204163 L10.7288361,0.911865234 C10.503891,1.49478149 10.3376999,2.09394836 10.2302628,2.70936584 C10.1228256,3.32478333 10.0717163,3.95292664 10.0769348,4.59379578 C10.0875549,5.77610779 10.2941208,6.90872955 10.6966324,7.99166107 C11.099144,9.07459259 11.6683044,10.0615997 12.4041138,10.9526825 C13.1399231,11.8437653 14.0089874,12.5892792 15.0113068,13.1892242 Z M4.95236206,8.36732483 C5.31994629,8.36732483 5.63456726,8.23633575 5.89622498,7.9743576 C6.15788269,7.71237946 6.28871155,7.39494324 6.28871155,7.02204895 C6.28871155,6.65501404 6.15788269,6.34185791 5.89622498,6.08258057 C5.63456726,5.82330322 5.31994629,5.69366455 4.95236206,5.69366455 C4.5852356,5.69366455 4.27056885,5.82330322 4.00836182,6.08258057 C3.74615479,6.34185791 3.61505127,6.65501404 3.61505127,7.02204895 C3.61505127,7.39494324 3.74615479,7.71237946 4.00836182,7.9743576 C4.27056885,8.23633575 4.5852356,8.36732483 4.95236206,8.36732483 Z M11.3328094,9.05905151 C11.6957245,9.05905151 12.0056534,8.92925262 12.2625961,8.66965485 C12.5195389,8.41005707 12.6480103,8.09591675 12.6480103,7.72723389 C12.6480103,7.36962891 12.5195389,7.06102753 12.2625961,6.80142975 C12.0056534,6.54183197 11.6957245,6.41203308 11.3328094,6.41203308 C10.9641266,6.41203308 10.6513138,6.54183197 10.394371,6.80142975 C10.1374283,7.06102753 10.0089569,7.36962891 10.0089569,7.72723389 C10.0089569,8.09591675 10.1374283,8.41005707 10.394371,8.66965485 C10.6513138,8.92925262 10.9641266,9.05905151 11.3328094,9.05905151 Z M8.85003662,13.8284912 C9.21826172,13.8284912 9.53217316,13.6973877 9.79177094,13.4351807 C10.0513687,13.1729736 10.1811676,12.8577576 10.1811676,12.4895325 C10.1811676,12.1208496 10.0512314,11.8067093 9.79135895,11.5471115 C9.53148651,11.2875137 9.2177124,11.1577148 8.85003662,11.1577148 C8.47549438,11.1577148 8.15842438,11.2875137 7.8988266,11.5471115 C7.63922882,11.8067093 7.50942993,12.1208496 7.50942993,12.4895325 C7.50942993,12.8577576 7.63922882,13.1729736 7.8988266,13.4351807 C8.15842438,13.6973877 8.47549438,13.8284912 8.85003662,13.8284912 Z M8.53994751,17.0782471 C9.70861816,17.0782471 10.8077316,16.854332 11.8372879,16.4065018 C12.8668442,15.9586716 13.7752762,15.3425674 14.5625839,14.5581894 C15.3498917,13.7738113 15.966156,12.8667068 16.411377,11.8368759 C16.8565979,10.807045 17.0792084,9.70779419 17.0792084,8.53912354 C17.0792084,7.37045288 16.8552704,6.27122498 16.4073944,5.24143982 C15.9595184,4.21165466 15.3419266,3.30324554 14.5546188,2.51621246 C13.7673111,1.72917938 12.8588791,1.11305237 11.8293228,0.667831421 C10.7997665,0.222610474 9.70037842,0 8.53115845,0 C7.36779785,0 6.2713623,0.222610474 5.24185181,0.667831421 C4.21234131,1.11305237 3.30393219,1.72917938 2.51662445,2.51621246 C1.72931671,3.30324554 1.11305237,4.21165466 0.667831421,5.24143982 C0.222610474,6.27122498 0,7.37045288 0,8.53912354 C0,9.70779419 0.223937988,10.807045 0.671813965,11.8368759 C1.11968994,12.8667068 1.73595428,13.7738113 2.52060699,14.5581894 C3.3052597,15.3425674 4.21234131,15.9586716 5.24185181,16.4065018 C6.2713623,16.854332 7.37072754,17.0782471 8.53994751,17.0782471 Z M8.53994751,15.836792 C7.54367065,15.836792 6.60479736,15.6462936 5.72332764,15.2652969 C4.84185791,14.8843002 4.0651474,14.3578262 3.39319611,13.6858749 C2.72124481,13.0139236 2.19465637,12.2370758 1.81343079,11.3553314 C1.4322052,10.473587 1.24159241,9.53485107 1.24159241,8.53912354 C1.24159241,7.543396 1.4322052,6.60466003 1.81343079,5.72291565 C2.19465637,4.84117126 2.72124481,4.06432343 3.39319611,3.39237213 C4.0651474,2.72042084 4.8405304,2.19396973 5.71934509,1.8130188 C6.59815979,1.43206787 7.53543091,1.24159241 8.53115845,1.24159241 C9.53274536,1.24159241 10.4729691,1.43206787 11.3518295,1.8130188 C12.23069,2.19396973 13.0075607,2.72042084 13.6824417,3.39237213 C14.3573227,4.06432343 14.8852386,4.84117126 15.2661896,5.72291565 C15.6471405,6.60466003 15.837616,7.543396 15.837616,8.53912354 C15.837616,9.53485107 15.6471405,10.473587 15.2661896,11.3553314 C14.8852386,12.2370758 14.3586273,13.0139236 13.6863556,13.6858749 C13.0140839,14.3578262 12.2372131,14.8843002 11.3557434,15.2652969 C10.4742737,15.6462936 9.53567505,15.836792 8.53994751,15.836792 Z" id="Shape"></path>
                    </g>
                </g>
            </g>
        </g>
    </g>
</svg>