<?xml version="1.0" encoding="UTF-8"?>
<svg width="48px" height="36px" viewBox="0 0 48 36" version="1.1" xmlns="http://www.w3.org/2000/svg" xmlns:xlink="http://www.w3.org/1999/xlink">
    <title>cloud-services</title>
    <g id="cloud-services" stroke="none" stroke-width="1" fill="none" fill-rule="evenodd">
        <path d="M18.5,2 C21.4069313,2 24.0618846,3.07865821 26.0866731,4.85734247 C27.8954654,6.44628392 29.2008405,8.59415618 29.7340947,11.0304916 C29.9866992,11.0102939 30.2421484,11 30.5,11 C32.6111839,11 34.5614056,11.6888652 36.1385673,12.8536255 C37.5736227,13.913438 38.6993014,15.3678132 39.3564979,17.0563046 C40.834892,17.2506868 42.1569032,17.9420156 43.1490895,18.9572978 C44.2941776,20.1290411 45,21.7320881 45,23.5 C45,25.2949254 44.2724627,26.9199254 43.0961941,28.0961941 C41.9199254,29.2724627 40.2949254,30 38.5,30 C37.1715307,30 35.9362038,29.6013768 34.9066925,28.917442 C33.5898898,29.6088526 32.090651,30 30.5,30 C30.0932384,30 29.6924557,29.9743866 29.2988369,29.9249248 C27.5832293,32.3883535 24.7297599,34 21.5,34 C18.4812475,34 15.7911822,32.592082 14.0510783,30.3970882 C13.1110014,30.7855794 12.0805575,31 11,31 C8.790861,31 6.790861,30.1045695 5.34314575,28.6568542 C3.8954305,27.209139 3,25.209139 3,23 C3,21.3335809 3.5097617,19.7862921 4.38131241,18.5051183 C5.11336074,17.4290121 6.10114911,16.540984 7.25705683,15.9279751 C7.08870339,15.1454451 7,14.3330793 7,13.5 C7,10.3243627 8.28718134,7.44936269 10.368272,5.36827202 C12.4493627,3.28718134 15.3243627,2 18.5,2 Z" id="Combined-Shape" stroke="#80191A" stroke-width="2"></path>
    </g>
</svg>