<?xml version="1.0" encoding="UTF-8"?>
<!--Generator: Apple Native CoreSVG 326-->
<!DOCTYPE svg
PUBLIC "-//W3C//DTD SVG 1.1//EN"
       "http://www.w3.org/Graphics/SVG/1.1/DTD/svg11.dtd">
<svg version="1.1" xmlns="http://www.w3.org/2000/svg" xmlns:xlink="http://www.w3.org/1999/xlink" viewBox="0 0 21.9971 21.6401">
 <g>
  <rect height="21.6401" opacity="0" width="21.9971" x="0" y="0"/>
  <path d="M10.8076 21.6235C16.7759 21.6235 21.6235 16.7842 21.6235 10.8159C21.6235 4.84766 16.7759 0 10.8076 0C4.83936 0 0 4.84766 0 10.8159C0 16.7842 4.83936 21.6235 10.8076 21.6235ZM10.8076 20.0796C5.68604 20.0796 1.54395 15.9375 1.54395 10.8159C1.54395 5.69434 5.68604 1.55225 10.8076 1.55225C15.9292 1.55225 20.0713 5.69434 20.0713 10.8159C20.0713 15.9375 15.9292 20.0796 10.8076 20.0796Z" fill="#384FF0"/>
  <path d="M16.1948 10.8076C16.1948 10.6167 16.1284 10.459 15.9458 10.2764L12.4927 6.72363C12.3516 6.58252 12.2104 6.50781 12.0112 6.50781C11.6377 6.50781 11.3638 6.79834 11.3638 7.17188C11.3638 7.35449 11.4385 7.54541 11.5879 7.66992L13.439 9.43799L14.1611 10.1353L12.5923 10.0771L6.18408 10.0771C5.79395 10.0771 5.47021 10.4092 5.47021 10.8076C5.47021 11.1978 5.79395 11.5298 6.18408 11.5298L12.5923 11.5298L14.1694 11.48L13.439 12.1772L11.5879 13.9453C11.4385 14.0698 11.3638 14.269 11.3638 14.4517C11.3638 14.8252 11.6377 15.1074 12.0112 15.1074C12.2104 15.1074 12.3516 15.0327 12.4927 14.8916L15.9458 11.3306C16.1284 11.1479 16.1948 10.9902 16.1948 10.8076Z" fill="#384FF0"/>
 </g>
</svg>
