<?xml version="1.0" encoding="UTF-8"?>
<svg width="16px" height="20px" viewBox="0 0 16 20" version="1.1" xmlns="http://www.w3.org/2000/svg" xmlns:xlink="http://www.w3.org/1999/xlink">
    <title>􀆿</title>
    <g id="Page-1" stroke="none" stroke-width="1" fill="none" fill-rule="evenodd">
        <g id="home" transform="translate(-650, -891)" fill="#742D2D" fill-rule="nonzero">
            <g id="Group-3" transform="translate(220, 666)">
                <g id="neonPill" transform="translate(409.506, 211)">
                    <g id="􀆿" transform="translate(20.9903, 14.5786)">
                        <path d="M8.92584229,19.039444 C9.04202271,19.039444 9.14083099,19.0007629 9.22226715,18.9234009 C9.30370331,18.8460388 9.3540802,18.7462921 9.37339783,18.6241608 C9.49699402,17.7210846 9.63189697,16.9580383 9.77810669,16.335022 C9.92431641,15.7120056 10.1169662,15.1997681 10.3560562,14.7983093 C10.5951462,14.3968506 10.9124908,14.0755234 11.3080902,13.8343277 C11.7036896,13.593132 12.2078934,13.4041214 12.8207016,13.2672958 C13.4335098,13.1304703 14.1847687,13.0125275 15.0744781,12.9134674 C15.2023773,12.9000092 15.306633,12.8510971 15.3872452,12.7667313 C15.4678574,12.6823654 15.5081635,12.5788879 15.5081635,12.4562988 C15.5081635,12.3348083 15.4679947,12.2318573 15.3876572,12.1474457 C15.3073196,12.0630341 15.2032013,12.0138702 15.0753021,11.9999542 C14.186142,11.8986053 13.435318,11.7792206 12.8228302,11.6417999 C12.2103424,11.5043793 11.7067108,11.3152313 11.3119354,11.0743561 C10.91716,10.8334808 10.6003647,10.5125885 10.3615494,10.1116791 C10.1227341,9.71076965 9.92980957,9.20056915 9.78277588,8.58107758 C9.63574219,7.961586 9.49928284,7.19760132 9.37339783,6.28912354 C9.35353088,6.16708374 9.30301666,6.06738281 9.22185516,5.99002075 C9.14069366,5.91265869 9.04202271,5.87397766 8.92584229,5.87397766 C8.80426025,5.87397766 8.70275116,5.91265869 8.621315,5.99002075 C8.53987885,6.06738281 8.48954773,6.16708374 8.47032166,6.28912354 C8.35258484,7.19760132 8.22047424,7.96199799 8.07398987,8.58231354 C7.92750549,9.20262909 7.73336792,9.71353912 7.49157715,10.1150436 C7.24978638,10.5165482 6.93122864,10.8378754 6.53590393,11.0790253 C6.14057922,11.3201752 5.63770294,11.5091858 5.02727509,11.6460571 C4.41684723,11.7829285 3.66444397,11.9008942 2.77006531,11.9999542 C2.64152527,12.0127716 2.53697205,12.0615005 2.45640564,12.1461411 C2.37583923,12.2307816 2.33555603,12.3341675 2.33555603,12.4562988 C2.33555603,12.5783386 2.3757019,12.6815414 2.45599365,12.7659073 C2.5362854,12.8502731 2.64042664,12.8994598 2.76841736,12.9134674 C3.65803528,13.0306549 4.40764618,13.1619186 5.01725006,13.3072586 C5.62685394,13.4525986 6.12771606,13.6444016 6.51983643,13.8826675 C6.91195679,14.1209335 7.22875214,14.4364014 7.47022247,14.829071 C7.71169281,15.2217407 7.90727234,15.7266541 8.05696106,16.343811 C8.20664978,16.960968 8.34443665,17.7210846 8.47032166,18.6241608 C8.49009705,18.7462921 8.54072571,18.8460388 8.62220764,18.9234009 C8.70368958,19.0007629 8.80490112,19.039444 8.92584229,19.039444 Z M3.22297668,9.83427429 C3.30363464,9.83427429 3.37188721,9.80795288 3.42773438,9.75531006 C3.48358154,9.70266724 3.51502991,9.63890076 3.52207947,9.56401062 C3.59770203,9.00965881 3.67316437,8.57778168 3.74846649,8.26837921 C3.82376862,7.95897675 3.94287872,7.72677612 4.10579681,7.57177734 C4.2687149,7.41677856 4.51249695,7.29547119 4.83714294,7.20785522 C5.16178894,7.12023926 5.61094666,7.02131653 6.18461609,6.91108704 C6.364151,6.88014221 6.45391846,6.78048706 6.45391846,6.61212158 C6.45391846,6.53192139 6.42773438,6.46508789 6.37536621,6.41162109 C6.32299805,6.3581543 6.25914001,6.32528687 6.18379211,6.3130188 C5.61122131,6.23739624 5.16144562,6.16030884 4.83446503,6.08175659 C4.50748444,6.00320435 4.26370239,5.88233185 4.1031189,5.7191391 C3.9425354,5.55594635 3.82445526,5.31511688 3.74887848,4.9966507 C3.6733017,4.67818451 3.59770203,4.23825073 3.52207947,3.67684937 C3.50276184,3.49090576 3.40306091,3.39793396 3.22297668,3.39793396 C3.04820251,3.39793396 2.94850159,3.49411011 2.9238739,3.6864624 C2.85942078,4.23495483 2.78968048,4.66376495 2.71465302,4.97289276 C2.63962555,5.28202057 2.51918793,5.51408386 2.35334015,5.66908264 C2.18749237,5.82408142 1.94078064,5.94392395 1.61320496,6.02861023 C1.28562927,6.11329651 0.837661743,6.20809937 0.269302368,6.3130188 C0.0897674561,6.34927368 0,6.44897461 0,6.61212158 C0,6.78103638 0.102035522,6.88069153 0.306106567,6.91108704 C0.867507935,7.0037384 1.31023407,7.09080505 1.63428497,7.17228699 C1.95833588,7.25376892 2.20051575,7.37493896 2.36082458,7.53579712 C2.52113342,7.69665527 2.6389389,7.93338776 2.71424103,8.24599457 C2.78954315,8.55860138 2.85942078,8.99208069 2.9238739,9.5464325 C2.94850159,9.73832703 3.04820251,9.83427429 3.22297668,9.83427429 Z M7.25262451,4.06507874 C7.35845947,4.06507874 7.42337036,4.00657654 7.44735718,3.88957214 C7.52774048,3.44535828 7.60279083,3.12142181 7.67250824,2.91776276 C7.74222565,2.7141037 7.87934875,2.57036591 8.08387756,2.48654938 C8.28840637,2.40273285 8.63063049,2.31628418 9.11054993,2.22720337 C9.22746277,2.20266724 9.28591919,2.13775635 9.28591919,2.0324707 C9.28591919,1.92132568 9.22686768,1.85668945 9.10876465,1.83856201 C8.6300354,1.75241089 8.28840637,1.66770172 8.08387756,1.58443451 C7.87934875,1.5011673 7.74222565,1.35740662 7.67250824,1.15315247 C7.60279083,0.948898315 7.52774048,0.623565674 7.44735718,0.177154541 C7.42391968,0.0590515137 7.35900879,0 7.25262451,0 C7.14093018,0 7.07601929,0.0593261719 7.05789185,0.177978516 C6.97805786,0.622192383 6.90328217,0.945854187 6.83356476,1.14896393 C6.76384735,1.35207367 6.62658691,1.4955368 6.42178345,1.57935333 C6.21697998,1.66316986 5.87461853,1.74957275 5.3946991,1.83856201 C5.2776947,1.85733032 5.2191925,1.92196655 5.2191925,2.0324707 C5.2191925,2.13830566 5.27856445,2.20321655 5.39730835,2.22720337 C5.8760376,2.31454468 6.2175293,2.39998627 6.42178345,2.48352814 C6.6260376,2.56707001 6.76302338,2.71083069 6.83274078,2.91481018 C6.90245819,3.11878967 6.97750854,3.44343567 7.05789185,3.88874817 C7.07601929,4.00630188 7.14093018,4.06507874 7.25262451,4.06507874 Z" id="Shape"></path>
                    </g>
                </g>
            </g>
        </g>
    </g>
</svg>