<?xml version="1.0" encoding="utf-8"?>
<!-- Generator: Adobe Illustrator 27.9.0, SVG Export Plug-In . SVG Version: 6.00 Build 0)  -->
<svg version="1.1" id="Layer_1" xmlns="http://www.w3.org/2000/svg" xmlns:xlink="http://www.w3.org/1999/xlink" x="0px" y="0px"
	 viewBox="0 0 16 16" style="enable-background:new 0 0 16 16;" xml:space="preserve">
<style type="text/css">
	.st0{fill:#F05138;}
</style>
<path class="st0" d="M14.6,10.9C14.6,10.9,14.6,10.9,14.6,10.9c0-0.1,0-0.2,0.1-0.2c0.9-3.5-1.3-7.6-4.9-9.7c1.6,2.1,2.3,4.7,1.7,7
	c-0.1,0.2-0.1,0.4-0.2,0.6c-0.1-0.1-0.2-0.1-0.3-0.2c0,0-3.6-2.2-7.5-6.1C3.4,2.1,5.6,5.3,8,7.9C6.9,7.2,3.6,4.9,1.6,3
	c0.3,0.4,0.6,0.8,0.9,1.2c1.7,2.2,3.9,4.8,6.6,6.9c-1.9,1.1-4.5,1.2-7.2,0c-0.7-0.3-1.3-0.7-1.8-1.1c1.1,1.8,2.8,3.3,4.9,4.2
	c2.5,1.1,5,1,6.8,0l0,0c0,0,0,0,0,0c0.1,0,0.2-0.1,0.2-0.1c0.9-0.5,2.6-0.9,3.6,0.9C15.9,15.5,16.4,13.1,14.6,10.9z"/>
</svg>
