<svg clip-rule="evenodd" fill-rule="evenodd" stroke-linejoin="round" stroke-miterlimit="2" viewBox="0 0 16 16" xmlns="http://www.w3.org/2000/svg"><path d="m46.955 36.578c-.002-.002-.003-.003-.005-.005.066-.223.134-.445.191-.673 2.46-9.799-3.543-21.384-13.701-27.484 4.452 6.035 6.42 13.344 4.671 19.735-.156.571-.343 1.118-.55 1.65-.225-.148-.509-.316-.889-.526 0 0-10.104-6.238-21.055-17.273-.288-.29 5.839 8.757 12.793 16.104-3.276-1.839-12.406-8.482-18.186-13.772.71 1.185 1.555 2.325 2.483 3.423 4.827 6.121 11.121 13.673 18.662 19.473-5.298 3.242-12.785 3.494-20.239.003-1.844-.864-3.577-1.907-5.182-3.091 3.156 5.047 8.015 9.401 13.93 11.943 7.054 3.032 14.068 2.826 19.292.05l-.004.006c.024-.015.054-.031.079-.047.214-.115.427-.232.636-.356 2.51-1.303 7.467-2.625 10.129 2.553.651 1.267 2.036-5.448-3.055-11.713z" fill="#f05138" fill-rule="nonzero" transform="matrix(.351937 0 0 .351937 -1.96558 -2.00601)"/></svg>