<?xml version="1.0" encoding="UTF-8"?>
<svg width="19px" height="31px" viewBox="0 0 19 31" version="1.1" xmlns="http://www.w3.org/2000/svg" xmlns:xlink="http://www.w3.org/1999/xlink">
    <title>􀟞</title>
    <g id="Page-1" stroke="none" stroke-width="1" fill="none" fill-rule="evenodd">
        <g id="home" transform="translate(-587, -755)" fill="#742D2D" fill-rule="nonzero">
            <g id="Group-3" transform="translate(220, 666)">
                <g id="neonPill" transform="translate(333.5, 68)">
                    <g id="􀟞" transform="translate(33.9161, 21.546)">
                        <path d="M3.89533997,29.8612976 L14.5108795,29.8612976 C15.6594086,29.8612976 16.5878677,29.5208359 17.296257,28.8399124 C18.0046463,28.158989 18.3588409,27.25914 18.3588409,26.1403656 L18.3588409,3.72093201 C18.3588409,2.6108551 18.0046463,1.71318054 17.296257,1.02790833 C16.5878677,0.342636108 15.6594086,0 14.5108795,0 L3.89533997,0 C2.72850037,0 1.78756714,0.342636108 1.07254028,1.02790833 C0.357513428,1.71318054 0,2.61032104 0,3.71932983 L0,26.1417389 C0,27.2595978 0.357513428,28.158989 1.07254028,28.8399124 C1.78756714,29.5208359 2.72850037,29.8612976 3.89533997,29.8612976 Z M4.26841736,27.3687744 C3.70124817,27.3687744 3.26473236,27.2211838 2.95886993,26.9260025 C2.65300751,26.6308212 2.50007629,26.2114716 2.50007629,25.6679535 L2.50007629,4.19448853 C2.50007629,3.65203857 2.65300751,3.23322296 2.95886993,2.93804169 C3.26473236,2.64286041 3.70124817,2.49526978 4.26841736,2.49526978 L14.093399,2.49526978 C14.6604156,2.49526978 15.098877,2.64331818 15.408783,2.93941498 C15.718689,3.23551178 15.873642,3.65432739 15.873642,4.19586182 L15.873642,25.6665802 C15.873642,26.2090302 15.718689,26.6283417 15.408783,26.9245148 C15.098877,27.2206879 14.6604156,27.3687744 14.093399,27.3687744 L4.26841736,27.3687744 Z M4.92897034,25.4875946 L6.24252319,25.4875946 C6.60675049,25.4875946 6.78886414,25.3206635 6.78886414,24.9868011 L6.78886414,23.6277008 C6.78886414,23.2938385 6.60675049,23.1269073 6.24252319,23.1269073 L4.92897034,23.1269073 C4.59495544,23.1269073 4.427948,23.2938385 4.427948,23.6277008 L4.427948,24.9868011 C4.427948,25.3206635 4.59495544,25.4875946 4.92897034,25.4875946 Z M8.50868225,25.4875946 L9.82223511,25.4875946 C10.1855469,25.4875946 10.3672028,25.3206635 10.3672028,24.9868011 L10.3672028,23.6277008 C10.3672028,23.2938385 10.1855469,23.1269073 9.82223511,23.1269073 L8.50868225,23.1269073 C8.16596985,23.1269073 7.99461365,23.2938385 7.99461365,23.6277008 L7.99461365,24.9868011 C7.99461365,25.3206635 8.16596985,25.4875946 8.50868225,25.4875946 Z M12.0723724,25.4875946 L13.3859253,25.4875946 C13.7501526,25.4875946 13.9322662,25.3206635 13.9322662,24.9868011 L13.9322662,23.6277008 C13.9322662,23.2938385 13.7501526,23.1269073 13.3859253,23.1269073 L12.0723724,23.1269073 C11.72966,23.1269073 11.5583038,23.2938385 11.5583038,23.6277008 L11.5583038,24.9868011 C11.5583038,25.3206635 11.72966,25.4875946 12.0723724,25.4875946 Z M4.92897034,14.3900299 L6.24252319,14.3900299 C6.60675049,14.3900299 6.78886414,14.2137909 6.78886414,13.8613129 L6.78886414,12.530365 C6.78886414,12.1788025 6.60675049,12.0030212 6.24252319,12.0030212 L4.92897034,12.0030212 C4.59495544,12.0030212 4.427948,12.1788025 4.427948,12.530365 L4.427948,13.8613129 C4.427948,14.2137909 4.59495544,14.3900299 4.92897034,14.3900299 Z M8.50868225,14.3900299 L9.82223511,14.3900299 C10.1855469,14.3900299 10.3672028,14.2137909 10.3672028,13.8613129 L10.3672028,12.530365 C10.3672028,12.1788025 10.1855469,12.0030212 9.82223511,12.0030212 L8.50868225,12.0030212 C8.16596985,12.0030212 7.99461365,12.1788025 7.99461365,12.530365 L7.99461365,13.8613129 C7.99461365,14.2137909 8.16596985,14.3900299 8.50868225,14.3900299 Z M4.92897034,10.5953979 L6.24252319,10.5953979 C6.60675049,10.5953979 6.78886414,10.4283905 6.78886414,10.0943756 L6.78886414,8.73550415 C6.78886414,8.40148926 6.60675049,8.23448181 6.24252319,8.23448181 L4.92897034,8.23448181 C4.59495544,8.23448181 4.427948,8.40148926 4.427948,8.73550415 L4.427948,10.0943756 C4.427948,10.4283905 4.59495544,10.5953979 4.92897034,10.5953979 Z M8.50868225,10.5953979 L9.82223511,10.5953979 C10.1855469,10.5953979 10.3672028,10.4283905 10.3672028,10.0943756 L10.3672028,8.73550415 C10.3672028,8.40148926 10.1855469,8.23448181 9.82223511,8.23448181 L8.50868225,8.23448181 C8.16596985,8.23448181 7.99461365,8.40148926 7.99461365,8.73550415 L7.99461365,10.0943756 C7.99461365,10.4283905 8.16596985,10.5953979 8.50868225,10.5953979 Z M12.0723724,10.5953979 L13.3859253,10.5953979 C13.7501526,10.5953979 13.9322662,10.4283905 13.9322662,10.0943756 L13.9322662,8.73550415 C13.9322662,8.40148926 13.7501526,8.23448181 13.3859253,8.23448181 L12.0723724,8.23448181 C11.72966,8.23448181 11.5583038,8.40148926 11.5583038,8.73550415 L11.5583038,10.0943756 C11.5583038,10.4283905 11.72966,10.5953979 12.0723724,10.5953979 Z M4.92897034,6.81358337 L6.24252319,6.81358337 C6.60675049,6.81358337 6.78886414,6.64665222 6.78886414,6.31278992 L6.78886414,4.96856689 C6.78886414,4.6257019 6.60675049,4.45426941 6.24252319,4.45426941 L4.92897034,4.45426941 C4.59495544,4.45426941 4.427948,4.6257019 4.427948,4.96856689 L4.427948,6.31278992 C4.427948,6.64665222 4.59495544,6.81358337 4.92897034,6.81358337 Z M8.50868225,6.81358337 L9.82223511,6.81358337 C10.1855469,6.81358337 10.3672028,6.64665222 10.3672028,6.31278992 L10.3672028,4.96856689 C10.3672028,4.6257019 10.1855469,4.45426941 9.82223511,4.45426941 L8.50868225,4.45426941 C8.16596985,4.45426941 7.99461365,4.6257019 7.99461365,4.96856689 L7.99461365,6.31278992 C7.99461365,6.64665222 8.16596985,6.81358337 8.50868225,6.81358337 Z M12.0723724,6.81358337 L13.3859253,6.81358337 C13.7501526,6.81358337 13.9322662,6.64665222 13.9322662,6.31278992 L13.9322662,4.96856689 C13.9322662,4.6257019 13.7501526,4.45426941 13.3859253,4.45426941 L12.0723724,4.45426941 C11.72966,4.45426941 11.5583038,4.6257019 11.5583038,4.96856689 L11.5583038,6.31278992 C11.5583038,6.64665222 11.72966,6.81358337 12.0723724,6.81358337 Z" id="Shape"></path>
                    </g>
                </g>
            </g>
        </g>
    </g>
</svg>